<svg width="400" height="400" viewBox="0 0 400 400" fill="none" xmlns="http://www.w3.org/2000/svg">
<path d="M313.367 231.542C312.315 232.184 311.263 232.825 309.623 233.597C308.381 234.158 307.728 234.588 307.074 235.018C305.476 235.84 303.878 236.662 301.663 237.609C300.387 238.156 299.728 238.578 299.069 239C297.433 239.792 295.798 240.585 293.547 241.472C292.29 241.953 291.647 242.337 291.004 242.722C289.109 243.656 287.213 244.59 284.648 245.622C282.663 246.434 281.348 247.148 280.032 247.861C278.081 248.71 276.129 249.559 273.499 250.477C271.575 250.09 270.329 249.634 269.083 249.178C278.01 242.773 286.921 236.347 295.873 229.978C298.047 228.43 299.417 227.11 298.202 223.911C288.506 198.395 279.089 172.772 269.401 147.253C268.003 143.569 265.922 140.041 263.62 136.826C259.556 131.149 255.307 130.228 249.401 134.057C236.128 142.661 223.002 151.498 209.927 160.403C200.243 166.999 200.345 167.078 190.51 160.479C178.201 152.221 165.878 143.984 153.506 135.821C144.347 129.779 139.414 130.481 134.658 140.408C128.854 152.522 124.288 165.241 119.424 177.791C113.711 192.533 108.377 207.423 102.593 222.137C101.183 225.724 101.594 227.743 104.805 229.993C114.708 236.932 124.388 244.19 133.877 252.557C132.724 252.557 131.389 252.943 130.445 252.499C116.437 245.915 102.508 239.163 88.492 232.596C85.2589 231.08 85.7682 229.03 86.7232 226.454C94.9385 204.29 102.206 181.721 111.564 160.053C119.298 142.145 120.535 123.407 123.19 104.679C127.041 77.5073 139.449 56.1918 166.337 45.869C171.669 43.8219 177.466 42.9851 183.048 41.5901C183.288 42.2296 183.527 42.8691 183.766 43.5086C182.813 44.1328 181.935 45.1068 180.896 45.3303C151.064 51.747 133.192 70.8632 129.07 101.053C127.66 111.372 126.532 121.73 126.038 132.729C129.143 129.188 132.141 125.546 135.373 122.125C146.21 110.65 141.249 110.727 155.552 118.634C167.03 124.979 178.353 131.604 190.573 138.577C190.745 135.934 190.972 134.053 190.975 132.172C191.025 100.347 191.126 68.5226 190.986 36.699C190.966 32.3209 192.196 30.5876 196.633 31.0816C199.432 31.3933 202.322 31.4233 205.118 31.1082C209.696 30.5923 210.702 32.6586 210.684 36.8496C210.548 68.0075 210.6 99.1661 210.623 130.325C210.624 132.401 210.875 134.477 211.083 137.686C215.205 135.397 218.491 133.618 221.736 131.764C231.714 126.063 241.776 120.497 251.593 114.529C255.22 112.324 257.509 112.83 260.073 115.922C266.452 123.611 273.185 131.011 279.402 138.826C281.51 141.476 282.745 144.926 283.953 148.169C293.776 174.528 303.498 200.925 313.325 228.108C313.388 229.785 313.378 230.663 313.367 231.542ZM123.85 133.678L123.727 133.957C123.727 133.957 124.026 133.888 123.85 133.678Z" fill="white"/>
<path d="M163.292 252.268C164.127 253.144 164.962 254.019 166.074 255.438C167.286 256.771 168.223 257.56 169.159 258.349C169.434 258.519 169.677 258.727 170.125 259.467C171.29 260.76 172.22 261.557 173.15 262.355C174.685 263.859 176.22 265.363 178.071 267.408C179.326 268.74 180.264 269.531 181.203 270.321C181.203 270.321 181.498 270.576 181.302 270.995C180.389 271.786 179.672 272.159 178.955 272.531C164.777 265.825 156.698 253.107 148.044 240.996C147.166 239.766 146.861 237.888 146.857 236.309C146.788 209.843 146.802 183.376 146.829 156.909C146.831 155.457 147.112 154.005 147.352 151.694C149.261 152.897 150.626 153.671 151.899 154.573C166.561 164.962 181.319 175.22 195.785 185.876C199.634 188.711 202.115 188.354 205.722 185.611C219.625 175.035 233.773 164.78 247.845 154.425C249.293 153.359 250.84 152.426 253.167 150.883C253.348 153.333 253.581 155.032 253.582 156.731C253.608 182.865 253.667 208.999 253.502 235.132C253.486 237.581 252.421 240.267 251.126 242.41C249.07 245.809 246.162 248.687 244.053 252.061C238.82 260.432 231.845 266.78 222.474 271.351C221.66 271.778 221.421 272.039 221.182 272.3C221.182 272.3 221.201 272.322 220.848 272.21C219.906 271.702 219.317 271.306 218.728 270.91C224.13 265.477 229.612 260.12 234.874 254.555C236.124 253.232 237.365 251.216 237.376 249.512C237.51 228.353 237.419 207.193 237.366 186.034C237.365 185.557 237.14 185.08 236.826 183.831C235.149 184.953 233.673 185.83 232.318 186.865C222.919 194.041 213.471 201.158 204.21 208.509C201.545 210.626 199.633 210.84 196.839 208.706C188.634 202.441 180.21 196.463 171.488 189.89C170.469 189.046 169.834 188.684 169.2 188.323C168.364 187.754 167.529 187.186 166.337 186.125C164.926 185.418 163.873 185.203 162.819 184.988C162.899 185.786 162.979 186.583 163.059 187.38C163.093 208.035 163.126 228.69 162.967 249.919C162.947 251.085 163.12 251.677 163.292 252.268Z" fill="white"/>
<path d="M211.046 218.904C211.075 211.296 211.924 210.349 217.979 211.493C219.139 211.713 220.652 212.92 221.023 214.006C224.237 223.414 227.153 232.922 230.307 242.351C232.644 249.336 229.081 255.458 221.612 255.633C207.139 255.973 192.645 255.945 178.172 255.589C171.328 255.422 168.122 249.839 170.139 243.456C173.186 233.811 176.196 224.146 178.876 214.395C180.145 209.776 183.525 211.735 186.156 211.435C189.027 211.108 189.24 213.164 189.231 215.357C189.193 224.679 189.33 234.004 189.064 243.319C189.026 244.645 187.129 245.918 186.093 247.216C185.202 245.936 183.632 244.701 183.544 243.368C183.229 238.643 183.421 233.884 183.421 229.139C182.855 229.035 182.289 228.932 181.723 228.828C179.433 235.642 177.143 242.455 174.652 249.866C191.916 249.866 208.081 249.866 225.252 249.866C222.83 243.034 220.661 236.915 218.492 230.796C217.96 230.838 217.428 230.88 216.896 230.923C216.896 236.145 216.896 241.368 216.896 246.363C212.692 247.908 211.007 247.248 211.068 243.313C211.191 235.325 211.066 227.333 211.046 218.904Z" fill="white"/>
<path d="M216.594 43.1698C218.004 42.5404 219.524 41.8235 220.84 42.0946C249.995 48.0978 270.388 69.4103 275.435 99.3135C277.14 109.412 278.334 119.598 279.762 129.743C279.044 129.964 278.326 130.185 277.609 130.405C276.094 126.753 273.969 123.227 273.18 119.423C270.789 107.903 270.21 95.8472 266.555 84.7829C260.108 65.2667 245.438 53.4556 225.972 47.3875C222.763 46.3872 219.726 44.8379 216.594 43.1698Z" fill="white"/>
<path d="M245.748 67.8979C255.206 76.2109 260.926 91.9461 258.446 103.754C254.361 99.5389 250.016 96.5065 243.719 99.3625C255.032 91.3017 247.863 81.846 246.808 73.0342C246.601 71.3046 245.969 69.6259 245.748 67.8979Z" fill="white"/>
<path d="M273.059 197.293C274.348 203.225 275.47 208.767 276.767 214.269C277.576 217.704 277.224 220.493 272.851 222.463C270.642 208.599 268.485 195.063 266.328 181.528C266.78 181.394 267.233 181.26 267.685 181.125C271.179 185.698 271.083 191.681 273.059 197.293Z" fill="white"/>
<path d="M124.32 218.069C126.419 208.285 128.426 198.914 130.494 189.557C130.566 189.227 131.236 189.03 132.333 188.303C130.592 201.713 128.934 214.489 127.239 227.554C122.206 225.36 123.447 221.857 124.32 218.069Z" fill="white"/>
<path d="M199.099 239.16C199.073 241.283 199.381 243.042 198.905 244.554C198.562 245.642 197.175 246.401 196.254 247.307C195.46 246.311 194.022 245.343 193.979 244.316C193.753 238.869 193.731 233.401 193.992 227.957C194.05 226.755 195.538 225.621 196.368 224.456C197.257 225.563 198.795 226.607 198.912 227.791C199.268 231.395 199.076 235.053 199.099 239.16Z" fill="white"/>
<path d="M163.277 107.175C165.206 109.813 166.896 112.188 168.825 114.897C162.1 114.755 152.202 102.085 150.273 91.1348C154.965 96.9331 159.002 101.922 163.277 107.175Z" fill="white"/>
<path d="M202.067 240.144C202.068 235.867 201.85 232.04 202.187 228.264C202.306 226.935 203.783 225.727 204.64 224.464C205.417 225.676 206.799 226.856 206.865 228.105C207.128 233.057 207.184 238.044 206.857 242.988C206.76 244.452 205.157 245.817 204.244 247.228C203.519 245.851 202.679 244.519 202.118 243.078C201.837 242.359 202.067 241.441 202.067 240.144Z" fill="white"/>
<path d="M202.207 269.199C197.217 272.824 196.724 267.837 193.6 265.387C198.219 265.387 201.679 265.387 206.547 265.387C204.515 267.19 203.493 268.097 202.207 269.199Z" fill="white"/>
<path d="M268.748 249.262C270.329 249.634 271.575 250.09 273.154 250.55C269.349 252.61 265.21 254.666 261.071 256.722C260.772 256.188 260.474 255.653 260.176 255.118C262.921 253.194 265.666 251.27 268.748 249.262Z" fill="white"/>
<path d="M178.699 272.324C179.21 271.688 180.172 270.957 181.199 270.324C183.564 271.82 185.836 274.408 187.89 276.166C187.586 276.671 187.282 277.176 186.978 277.681C184.441 276.141 181.442 274.128 178.699 272.324Z" fill="white"/>
<path d="M218.699 270.824C219.587 271.12 220.268 271.823 221.199 272.324C220.24 273.505 217.952 274.77 216.199 275.824C215.748 275.801 215.832 275.48 215.699 275.324C215.354 274.994 214.875 275.035 214.699 274.824C215.659 273.741 217.44 272.007 218.699 270.824Z" fill="white"/>
<path d="M163.278 187.074C162.979 186.583 162.899 185.786 162.818 184.989C163.872 185.204 164.926 185.419 166.123 185.908C165.343 186.378 164.42 186.572 163.278 187.074Z" fill="white"/>
<path d="M216.511 275.612C215.445 275.893 214.242 276.052 213.039 276.212C213.432 275.842 213.825 275.472 214.787 275.178C215.604 275.252 215.851 275.251 216.099 275.25C216.099 275.25 216.373 275.491 216.511 275.612Z" fill="white"/>
<path d="M280.359 247.858C281.347 247.148 282.662 246.435 284.317 245.732C283.333 246.446 282.01 247.15 280.359 247.858Z" fill="white"/>
<path d="M181.101 270.025C180.264 269.531 179.326 268.74 178.285 267.651C179.122 268.144 180.061 268.936 181.101 270.025Z" fill="white"/>
<path d="M173.038 262.065C172.222 261.558 171.292 260.76 170.27 259.661C171.093 260.164 172.009 260.97 173.038 262.065Z" fill="white"/>
<path d="M169.053 258.057C168.224 257.56 167.288 256.771 166.258 255.681C167.091 256.175 168.018 256.97 169.053 258.057Z" fill="white"/>
<path d="M313.622 231.438C313.377 230.663 313.387 229.785 313.419 228.467C313.586 229.13 313.732 230.232 313.622 231.438Z" fill="white"/>
<path d="M169.324 188.58C169.834 188.685 170.469 189.046 171.235 189.657C170.728 189.549 170.088 189.193 169.324 188.58Z" fill="white"/>
<path d="M163.332 251.931C163.121 251.677 162.948 251.085 162.934 250.384C163.184 250.714 163.278 251.154 163.332 251.931Z" fill="white"/>
<path d="M291.295 242.727C291.647 242.337 292.29 241.953 293.222 241.573C292.87 241.963 292.228 242.347 291.295 242.727Z" fill="white"/>
<path d="M299.367 238.98C299.726 238.578 300.385 238.156 301.349 237.734C300.992 238.142 300.33 238.551 299.367 238.98Z" fill="white"/>
<path d="M307.371 234.993C307.727 234.588 308.381 234.158 309.339 233.723C308.985 234.134 308.327 234.551 307.371 234.993Z" fill="white"/>
<path d="M215.966 275.093C215.851 275.251 215.604 275.252 214.986 275.276C214.702 275.129 214.788 274.96 215.063 274.575C215.426 274.571 215.621 274.763 215.966 275.093Z" fill="white"/>
<path d="M221.398 272.176C221.422 272.039 221.661 271.778 222.178 271.521C222.181 271.71 221.9 271.885 221.398 272.176Z" fill="white"/>
<path d="M71.224 352.324V318.916H78.968V324.484H79.864C81.1867 320.26 83.8107 318.148 87.736 318.148C91.9173 318.148 94.6267 320.345 95.864 324.74H96.632C97.3573 322.478 98.4667 320.814 99.96 319.748C101.496 318.681 103.352 318.148 105.528 318.148C108.344 318.148 110.541 319.172 112.12 321.22C113.699 323.225 114.488 326.105 114.488 329.86V352.324H106.744V331.204C106.744 326.852 105.187 324.676 102.072 324.676C100.579 324.676 99.2987 325.145 98.232 326.084C97.208 326.98 96.696 328.26 96.696 329.924V352.324H88.952V331.204C88.952 328.9 88.568 327.236 87.8 326.212C87.032 325.188 85.88 324.676 84.344 324.676C82.8507 324.676 81.5707 325.145 80.504 326.084C79.48 326.98 78.968 328.26 78.968 329.924V352.324H71.224ZM149.417 352.324C145.961 352.324 144.147 350.425 143.976 346.628H143.208C142.782 348.676 141.822 350.276 140.328 351.428C138.835 352.537 136.979 353.092 134.76 353.092C131.688 353.092 129.384 352.238 127.848 350.532C126.312 348.825 125.544 346.436 125.544 343.364C125.544 339.865 126.632 337.262 128.808 335.556C130.984 333.849 134.12 332.996 138.216 332.996H143.4V330.116C143.4 328.153 142.974 326.702 142.121 325.764C141.31 324.825 139.944 324.356 138.024 324.356C136.446 324.356 135.123 324.74 134.056 325.508C132.99 326.233 132.051 327.278 131.24 328.644L126.696 324.548C127.934 322.628 129.491 321.092 131.368 319.94C133.288 318.745 135.72 318.148 138.664 318.148C146.985 318.148 151.145 322.073 151.145 329.924V346.116H154.089V352.324H149.417ZM137.704 347.396C139.283 347.396 140.627 346.948 141.736 346.052C142.846 345.113 143.4 343.833 143.4 342.212V337.796H138.728C135.144 337.796 133.352 339.182 133.352 341.956V343.364C133.352 344.772 133.736 345.796 134.504 346.436C135.272 347.076 136.339 347.396 137.704 347.396ZM172.766 352.324C170.078 352.324 168.137 351.726 166.942 350.532C165.79 349.337 165.214 347.46 165.214 344.9V304.964H172.958V346.116H176.798V352.324H172.766ZM187.459 304.964H195.203V324.42H196.099C196.568 322.542 197.507 321.028 198.915 319.876C200.366 318.724 202.051 318.148 203.971 318.148C207.896 318.148 210.798 319.641 212.675 322.628C214.552 325.572 215.491 329.902 215.491 335.62C215.491 341.337 214.552 345.689 212.675 348.676C210.798 351.62 207.896 353.092 203.971 353.092C202.051 353.092 200.366 352.516 198.915 351.364C197.507 350.212 196.568 348.697 196.099 346.82H195.203V352.324H187.459V304.964ZM201.027 346.692C203.032 346.692 204.59 346.073 205.699 344.836C206.808 343.598 207.363 341.849 207.363 339.588V331.652C207.363 329.39 206.808 327.641 205.699 326.404C204.59 325.166 203.032 324.548 201.027 324.548C199.278 324.548 197.87 324.996 196.803 325.892C195.736 326.745 195.203 327.961 195.203 329.54V341.7C195.203 343.278 195.736 344.516 196.803 345.412C197.87 346.265 199.278 346.692 201.027 346.692ZM249.151 352.324C245.695 352.324 243.882 350.425 243.711 346.628H242.943C242.517 348.676 241.557 350.276 240.063 351.428C238.57 352.537 236.714 353.092 234.495 353.092C231.423 353.092 229.119 352.238 227.583 350.532C226.047 348.825 225.279 346.436 225.279 343.364C225.279 339.865 226.367 337.262 228.543 335.556C230.719 333.849 233.855 332.996 237.951 332.996H243.135V330.116C243.135 328.153 242.709 326.702 241.855 325.764C241.045 324.825 239.679 324.356 237.759 324.356C236.181 324.356 234.858 324.74 233.791 325.508C232.725 326.233 231.786 327.278 230.975 328.644L226.431 324.548C227.669 322.628 229.226 321.092 231.103 319.94C233.023 318.745 235.455 318.148 238.399 318.148C246.719 318.148 250.879 322.073 250.879 329.924V346.116H253.823V352.324H249.151ZM237.439 347.396C239.018 347.396 240.362 346.948 241.471 346.052C242.581 345.113 243.135 343.833 243.135 342.212V337.796H238.463C234.879 337.796 233.087 339.182 233.087 341.956V343.364C233.087 344.772 233.471 345.796 234.239 346.436C235.007 347.076 236.074 347.396 237.439 347.396ZM264.949 352.324V318.916H272.693V324.484H273.589C274.912 320.26 277.578 318.148 281.589 318.148C284.576 318.148 286.88 319.172 288.501 321.22C290.122 323.225 290.933 326.105 290.933 329.86V352.324H283.189V331.204C283.189 326.852 281.568 324.676 278.325 324.676C276.746 324.676 275.402 325.145 274.293 326.084C273.226 326.98 272.693 328.26 272.693 329.924V352.324H264.949ZM304.132 304.964H311.876V327.044L311.364 333.956H312.26L316.164 327.812L322.82 318.916H331.588L321.156 332.036L332.164 352.324H323.46L315.78 337.028L311.876 341.892V352.324H304.132V304.964Z" fill="white"/>
</svg>
